#!OML:ASF I:\Actors\actors\Patient Classification 2\Patient 1\Session 1\actor1.ASF
:FULLY-SPECIFIED
:DEGREES
141
root -0.556437 18.762 4.45418 3.50414 -2.48304 -2.37142
lowerback 0.742387 3.46594 -2.68674
upperback -1.2518 4.56511 -0.895537
thorax -1.83635 2.30945 0.469295
lowerneck -9.25202 -1.11061 2.18144
upperneck 37.6399 -2.72343 1.69864
head 14.5066 -0.610186 -0.0786982
rclavicle -3.95085e-015 -1.51076e-014
rhumerus -36.0378 37.0811 -104.361
rradius 101.691
rwrist -46.6905
rhand -18.1552 -36.6409
rfingers 7.12502
rthumb 8.12057 -66.4648
lclavicle -3.95085e-015 -1.51076e-014
lhumerus -51.4865 -19.0026 81.3563
lradius 68.5747
lwrist 11.444
lhand -17.3974 -46.6479
lfingers 7.12502
lthumb 8.85185 -16.8536
rfemur 3.47789 -10.0935 15.1561
rtibia 5.56597e-015
rfoot -7.6218 -1.17254
rtoes -3.26209
lfemur -7.62919 -5.57469 -12.3828
ltibia 22.3885
lfoot -22.0038 10.6111
ltoes -54.5484
142
root -0.539659 18.7644 4.43583 3.58464 -2.46403 -2.37694
lowerback 1.11066 3.64669 -2.74437
upperback -1.24875 4.7891 -1.04203
thorax -2.03858 2.42229 0.319125
lowerneck -9.28722 -1.12699 2.21051
upperneck 37.9572 -2.89831 2.07901
head 14.6787 -0.621079 0.0494947
rclavicle 5.73991e-015 7.95139e-015
rhumerus -34.7221 38.0295 -104.319
rradius 101.779
rwrist -47.3832
rhand -18.6015 -35.8813
rfingers 7.12502
rthumb 7.68984 -65.7215
lclavicle 5.73991e-015 7.95139e-015
lhumerus -51.2798 -19.4824 80.5901
lradius 69.1432
lwrist 11.1521
lhand -18.3018 -47.8121
lfingers 7.12502
lthumb 7.97901 -17.9827
rfemur 3.29906 -10.1198 15.1278
rtibia -6.36111e-015
rfoot -7.53366 -1.21743
rtoes -3.03454
lfemur -7.88107 -5.5973 -12.4254
ltibia 22.5392
lfoot -21.9858 10.6555
ltoes -54.5445
143
root -0.514751 18.7667 4.41491 3.6608 -2.50156 -2.42573
lowerback 1.501 3.86042 -2.67829
upperback -1.2175 5.05909 -1.17958
thorax -2.21452 2.55572 0.105441
lowerneck -9.32127 -1.18664 2.13202
upperneck 38.1862 -3.12663 2.50411
head 14.8133 -0.665468 0.208662
rclavicle 2.8625e-014 -3.97569e-015
rhumerus -33.5938 38.8374 -104.233
rradius 101.711
rwrist -47.9363
rhand -19.1129 -35.7279
rfingers 7.12502
rthumb 7.19617 -65.5856
lclavicle 2.8625e-014 -3.97569e-015
lhumerus -50.8567 -19.8097 79.9278
lradius 69.011
lwrist 11.5756
lhand -19.4401 -48.096
lfingers 7.12502
lthumb 6.88031 -18.2278
rfemur 3.08074 -10.087 15.1227
rtibia 1.59028e-015
rfoot -7.39028 -1.27809
rtoes -3.14459
lfemur -8.14904 -5.64245 -12.4561
ltibia 22.7207
lfoot -21.9978 10.7588
ltoes -54.4827
144
root -0.493464 18.7676 4.39831 3.71387 -2.46486 -2.46922
lowerback 1.82658 4.05618 -2.72295
upperback -1.15603 5.30599 -1.26973
thorax -2.33527 2.67881 0.00550601
lowerneck -9.33078 -1.26517 2.09003
upperneck 38.3597 -3.32657 2.75996
head 14.9113 -0.715884 0.29565
rclavicle -6.38596e-014 7.95139e-016
rhumerus -32.6608 39.4996 -104.18
rradius 101.432
rwrist -48.0726
rhand -19.8393 -35.8997
rfingers 7.12502
rthumb 6.49498 -65.7801
lclavicle -6.38596e-014 7.95139e-016
lhumerus -50.3189 -19.8852 79.3583
lradius 68.2329
lwrist 12.6487
lhand -20.1973 -50.5841
lfingers 7.12502
lthumb 6.14932 -20.6934
rfemur 2.92704 -10.1265 15.1207
rtibia 1.03368e-014
rfoot -7.27601 -1.33351
rtoes -3.3265
lfemur -8.39656 -5.62469 -12.4666
ltibia 22.9103
lfoot -21.9771 10.7141
ltoes -54.4202
145
root -0.476176 18.7684 4.38278 3.75353 -2.27218 -2.50815
lowerback 2.13659 4.1924 -2.86966
upperback -1.08437 5.47106 -1.33073
thorax -2.447 2.76263 -0.00535007
lowerneck -9.37743 -1.33193 2.1283
upperneck 38.5745 -3.50938 2.95055
head 15.0368 -0.754321 0.344059
rclavicle 2.13694e-015 -2.06736e-014
rhumerus -31.9008 40.1038 -104.261
rradius 101.002
rwrist -47.999
rhand -20.0646 -35.893
rfingers 7.12502
rthumb 6.27743 -65.78
lclavicle 2.13694e-015 -2.06736e-014
lhumerus -49.7607 -19.7575 78.8271
lradius 67.8054
lwrist 13.4207
lhand -21.2107 -51.6276
lfingers 7.12502
lthumb 5.1709 -21.7106
rfemur 2.84936 -10.3201 15.1293
rtibia 1.51076e-014
rfoot -7.24204 -1.37394
rtoes -3.36919
lfemur -8.65172 -5.42332 -12.4403
ltibia 23.0748
lfoot -21.8175 10.4214
ltoes -54.5095
